<svg width="28" height="28" viewBox="0 0 28 28" fill="none" xmlns="http://www.w3.org/2000/svg">
<path d="M11 13V22M11 13H6.59961C6.03956 13 5.75981 13 5.5459 13.109C5.35774 13.2049 5.20487 13.3577 5.10899 13.5459C5 13.7598 5 14.04 5 14.6001V22H11M11 13V7.6001C11 7.04004 11 6.75981 11.109 6.5459C11.2049 6.35774 11.3577 6.20487 11.5459 6.10899C11.7598 6 12.0396 6 12.5996 6H15.3996C15.9597 6 16.2403 6 16.4542 6.10899C16.6423 6.20487 16.7948 6.35774 16.8906 6.5459C16.9996 6.75981 17 7.04005 17 7.6001V10M11 22H17M17 22L23 22.0001V11.6001C23 11.04 22.9996 10.7598 22.8906 10.5459C22.7948 10.3577 22.6429 10.2049 22.4548 10.109C22.2409 10 21.9601 10 21.4 10H17M17 22V10" stroke="#1C1B1F" stroke-width="1.5" stroke-linecap="round" stroke-linejoin="round"/>
</svg>
