<svg width="28" height="28" viewBox="0 0 28 28" fill="none" xmlns="http://www.w3.org/2000/svg">
<path d="M5 8V18.8C5 19.9201 5 20.4798 5.21799 20.9076C5.40973 21.2839 5.71547 21.5905 6.0918 21.7822C6.5192 22 7.07899 22 8.19691 22H19.8031C20.921 22 21.48 22 21.9074 21.7822C22.2837 21.5905 22.5905 21.2841 22.7822 20.9078C23.0002 20.48 23.0002 19.9199 23.0002 18.7998L23.0002 11.1998C23.0002 10.0797 23.0002 9.51962 22.7822 9.0918C22.5905 8.71547 22.2839 8.40973 21.9076 8.21799C21.4798 8 20.9201 8 19.8 8H14M5 8H14M5 8C5 6.89543 5.89543 6 7 6H10.6745C11.1637 6 11.4089 6 11.639 6.05526C11.8431 6.10425 12.0379 6.18526 12.2168 6.29492C12.4186 6.41857 12.5918 6.59182 12.9375 6.9375L14 8" stroke="#1C1B1F" stroke-width="1.5" stroke-linecap="round" stroke-linejoin="round"/>
</svg>
