<svg width="28" height="28" viewBox="0 0 28 28" fill="none" xmlns="http://www.w3.org/2000/svg">
<path d="M22 19.3425V13.7945C22 13.2602 21.9995 12.9929 21.9346 12.7442C21.877 12.5239 21.7825 12.3154 21.6546 12.1269C21.5102 11.9143 21.3096 11.738 20.9074 11.3861L16.1074 7.18611C15.3608 6.53283 14.9875 6.20635 14.5674 6.08211C14.1972 5.97263 13.8026 5.97263 13.4324 6.08211C13.0126 6.20626 12.6398 6.53242 11.8944 7.18472L7.09277 11.3861C6.69064 11.738 6.49004 11.9143 6.3457 12.1269C6.21779 12.3154 6.12255 12.5239 6.06497 12.7442C6 12.9929 6 13.2602 6 13.7945V19.3425C6 20.2743 6 20.7401 6.15224 21.1076C6.35523 21.5977 6.74432 21.9875 7.23438 22.1905C7.60192 22.3427 8.06786 22.3427 8.99974 22.3427C9.93163 22.3427 10.3981 22.3427 10.7656 22.1905C11.2557 21.9875 11.6447 21.5978 11.8477 21.1077C11.9999 20.7402 12 20.2742 12 19.3424V18.3424C12 17.2378 12.8954 16.3424 14 16.3424C15.1046 16.3424 16 17.2378 16 18.3424V19.3424C16 20.2742 16 20.7402 16.1522 21.1077C16.3552 21.5978 16.7443 21.9875 17.2344 22.1905C17.6019 22.3427 18.0679 22.3427 18.9997 22.3427C19.9316 22.3427 20.3981 22.3427 20.7656 22.1905C21.2557 21.9875 21.6447 21.5977 21.8477 21.1076C21.9999 20.7401 22 20.2743 22 19.3425Z" stroke="currentColor" stroke-width="1.5" stroke-linecap="round" stroke-linejoin="round"/>
</svg>
