<svg width="28" height="28" viewBox="0 0 28 28" fill="none" xmlns="http://www.w3.org/2000/svg">
<path d="M21.5087 11.7146L21.1791 11.5313C21.128 11.5029 21.1028 11.4886 21.0781 11.4738C20.8324 11.3266 20.6252 11.1232 20.4741 10.8799C20.4589 10.8554 20.4445 10.8297 20.4152 10.779C20.386 10.7283 20.3711 10.7026 20.3575 10.6772C20.2219 10.424 20.1486 10.1419 20.1442 9.85477C20.1438 9.82591 20.1439 9.79641 20.1448 9.73778L20.1513 9.35511C20.1616 8.74273 20.1668 8.4356 20.0807 8.15996C20.0043 7.91512 19.8764 7.68961 19.7056 7.49824C19.5126 7.28191 19.2454 7.12758 18.7104 6.81931L18.2661 6.56325C17.7326 6.25584 17.4658 6.10208 17.1825 6.04346C16.932 5.99161 16.6734 5.99401 16.4238 6.05006C16.142 6.11331 15.8785 6.27108 15.3518 6.58643L15.3489 6.58786L15.0305 6.7785C14.9801 6.80864 14.9546 6.82384 14.9294 6.83787C14.679 6.97709 14.3994 7.05407 14.1131 7.06327C14.0842 7.06419 14.0549 7.06419 13.9962 7.06419C13.9378 7.06419 13.9072 7.06419 13.8784 7.06327C13.5914 7.05403 13.3113 6.97663 13.0605 6.83683C13.0352 6.82274 13.0102 6.80743 12.9598 6.77714L12.6394 6.58478C12.1091 6.26644 11.8436 6.10704 11.5602 6.04346C11.3096 5.98722 11.0501 5.98567 10.7986 6.03819C10.5147 6.0975 10.2478 6.2524 9.71402 6.5622L9.71165 6.56325L9.27283 6.81794L9.26797 6.82091C8.739 7.12792 8.47388 7.28179 8.28246 7.49724C8.11261 7.68842 7.98565 7.91357 7.90966 8.15776C7.82376 8.43377 7.82834 8.74157 7.83869 9.35683L7.84512 9.73896C7.84609 9.79683 7.84778 9.82558 7.84736 9.85404C7.8431 10.1418 7.7688 10.4244 7.63282 10.678C7.61937 10.7031 7.60488 10.7282 7.57594 10.7783C7.54698 10.8284 7.53296 10.8534 7.51794 10.8776C7.36612 11.1222 7.15805 11.3267 6.91076 11.4742C6.8863 11.4888 6.86053 11.5028 6.80988 11.5309L6.48452 11.7112C5.9432 12.0112 5.67261 12.1613 5.47571 12.3749C5.30152 12.5639 5.16993 12.7881 5.08961 13.0322C4.99881 13.3082 4.99889 13.6177 5.0003 14.2366L5.00145 14.7424C5.00284 15.3572 5.00476 15.6643 5.09576 15.9384C5.17626 16.181 5.30689 16.4038 5.4801 16.5917C5.67589 16.804 5.94379 16.9532 6.48101 17.252L6.80346 17.4314C6.85834 17.462 6.88595 17.477 6.91241 17.493C7.15746 17.6405 7.36389 17.8445 7.51443 18.0877C7.53069 18.114 7.5463 18.1413 7.57752 18.1958C7.60835 18.2497 7.62413 18.2766 7.63839 18.3036C7.77037 18.5535 7.84104 18.8311 7.84585 19.1137C7.84637 19.1442 7.84593 19.1751 7.84488 19.2372L7.83869 19.6039C7.82827 20.2212 7.82373 20.5303 7.91013 20.8071C7.98657 21.0519 8.11432 21.2774 8.2851 21.4688C8.47814 21.6851 8.74576 21.8393 9.28074 22.1476L9.725 22.4036C10.2585 22.711 10.5251 22.8646 10.8083 22.9232C11.0589 22.9751 11.3176 22.9731 11.5673 22.917C11.8494 22.8537 12.1138 22.6954 12.642 22.3791L12.9604 22.1885C13.0108 22.1583 13.0363 22.1432 13.0615 22.1292C13.3119 21.9899 13.5912 21.9126 13.8775 21.9034C13.9064 21.9024 13.9357 21.9024 13.9944 21.9024C14.0533 21.9024 14.0826 21.9024 14.1115 21.9034C14.3985 21.9126 14.6795 21.9902 14.9303 22.13C14.9523 22.1423 14.9745 22.1556 15.0133 22.179L15.3518 22.3822C15.8821 22.7005 16.147 22.8595 16.4304 22.923C16.6811 22.9793 16.9407 22.9816 17.1922 22.9291C17.4761 22.8698 17.7435 22.7146 18.277 22.4049L18.7224 22.1464C19.2517 21.8392 19.5171 21.6852 19.7086 21.4697C19.8785 21.2785 20.0056 21.0534 20.0816 20.8092C20.1668 20.5352 20.1617 20.2298 20.1515 19.6234L20.1448 19.2279C20.1439 19.1701 20.1438 19.1413 20.1442 19.1128C20.1484 18.8251 20.2215 18.5422 20.3575 18.2886C20.3709 18.2636 20.3855 18.2383 20.4144 18.1884C20.4433 18.1382 20.4583 18.1133 20.4733 18.0891C20.6252 17.8444 20.8334 17.6397 21.0807 17.4922C21.1049 17.4778 21.1298 17.464 21.1792 17.4366L21.1809 17.4359L21.5063 17.2556C22.0476 16.9556 22.3187 16.8053 22.5156 16.5917C22.6898 16.4027 22.8212 16.1788 22.9015 15.9347C22.9918 15.6603 22.9911 15.3526 22.9897 14.741L22.9885 14.2243C22.9871 13.6095 22.9864 13.3024 22.8954 13.0283C22.8149 12.7858 22.6835 12.5629 22.5103 12.3751C22.3147 12.1629 22.0464 12.0137 21.5102 11.7154L21.5087 11.7146Z" stroke="#1C1B1F" stroke-width="1.5" stroke-linecap="round" stroke-linejoin="round"/>
<path d="M10.3959 14.4835C10.3959 16.4714 12.0074 18.0829 13.9953 18.0829C15.9832 18.0829 17.5947 16.4714 17.5947 14.4835C17.5947 12.4956 15.9832 10.8841 13.9953 10.8841C12.0074 10.8841 10.3959 12.4956 10.3959 14.4835Z" stroke="#1C1B1F" stroke-width="1.5" stroke-linecap="round" stroke-linejoin="round"/>
</svg>
