<svg width="24" height="24" viewBox="0 0 24 24" fill="none" xmlns="http://www.w3.org/2000/svg">
<path d="M19.5126 9.28691L19.183 9.10359C19.1319 9.07512 19.1067 9.06083 19.082 9.04603C18.8363 8.89883 18.6291 8.69544 18.478 8.45212C18.4628 8.42764 18.4484 8.40196 18.4191 8.35122C18.3899 8.30054 18.375 8.27485 18.3614 8.24943C18.2258 7.99628 18.1525 7.71417 18.1481 7.42704C18.1477 7.39817 18.1478 7.36868 18.1487 7.31004L18.1552 6.92737C18.1655 6.315 18.1707 6.00786 18.0846 5.73222C18.0082 5.48739 17.8803 5.26188 17.7095 5.0705C17.5165 4.85418 17.2493 4.69985 16.7143 4.39158L16.27 4.13552C15.7365 3.82811 15.4697 3.67435 15.1864 3.61573C14.9359 3.56387 14.6773 3.56628 14.4277 3.62232C14.1459 3.68558 13.8824 3.84334 13.3557 4.15869L13.3528 4.16012L13.0344 4.35076C12.984 4.38091 12.9585 4.3961 12.9333 4.41013C12.6829 4.54936 12.4034 4.62634 12.117 4.63553C12.0881 4.63646 12.0588 4.63646 12.0001 4.63646C11.9417 4.63646 11.9111 4.63646 11.8823 4.63553C11.5953 4.6263 11.3152 4.5489 11.0644 4.4091C11.0391 4.39501 11.0141 4.37969 10.9637 4.34941L10.6433 4.15705C10.113 3.83871 9.84748 3.6793 9.56414 3.61573C9.31347 3.55949 9.05402 3.55793 8.80254 3.61046C8.51859 3.66977 8.2517 3.82466 7.71793 4.13446L7.71556 4.13552L7.27673 4.3902L7.27188 4.39318C6.74291 4.70018 6.47778 4.85406 6.28637 5.0695C6.11651 5.26068 5.98955 5.48584 5.91356 5.73003C5.82767 6.00604 5.83225 6.31384 5.8426 6.92909L5.84903 7.31122C5.85 7.36909 5.85169 7.39785 5.85127 7.42631C5.84701 7.71403 5.7727 7.99671 5.63672 8.25031C5.62327 8.27539 5.60879 8.30047 5.57985 8.35057C5.55089 8.4007 5.53687 8.42563 5.52185 8.44982C5.37002 8.69445 5.16196 8.89901 4.91467 9.04647C4.89021 9.06105 4.86443 9.07508 4.81378 9.10315L4.48843 9.28345C3.94711 9.58343 3.67651 9.73355 3.47961 9.94719C3.30543 10.1362 3.17384 10.3604 3.09352 10.6045C3.00272 10.8805 3.0028 11.19 3.0042 11.8088L3.00535 12.3147C3.00675 12.9294 3.00866 13.2366 3.09966 13.5107C3.18017 13.7532 3.31079 13.9761 3.48401 14.1639C3.67979 14.3763 3.9477 14.5255 4.48491 14.8243L4.80737 15.0037C4.86224 15.0342 4.88986 15.0493 4.91632 15.0652C5.16136 15.2128 5.3678 15.4168 5.51833 15.66C5.5346 15.6863 5.55021 15.7136 5.58143 15.7681C5.61226 15.822 5.62803 15.8489 5.64229 15.8759C5.77428 16.1258 5.84494 16.4034 5.84976 16.686C5.85028 16.7165 5.84984 16.7474 5.84879 16.8094L5.8426 17.1761C5.83217 17.7935 5.82763 18.1025 5.91404 18.3793C5.99047 18.6242 6.11823 18.8497 6.28901 19.041C6.48205 19.2574 6.74966 19.4116 7.28464 19.7199L7.7289 19.9759C8.26238 20.2833 8.52902 20.4369 8.81224 20.4955C9.0628 20.5474 9.32152 20.5453 9.57117 20.4893C9.85335 20.4259 10.1177 20.2676 10.6459 19.9514L10.9643 19.7607C11.0147 19.7306 11.0402 19.7155 11.0654 19.7014C11.3158 19.5622 11.5951 19.4848 11.8814 19.4756C11.9103 19.4747 11.9396 19.4747 11.9984 19.4747C12.0572 19.4747 12.0865 19.4747 12.1154 19.4756C12.4024 19.4849 12.6834 19.5625 12.9342 19.7023C12.9563 19.7146 12.9784 19.7279 13.0172 19.7512L13.3557 19.9544C13.886 20.2728 14.1509 20.4317 14.4343 20.4953C14.685 20.5516 14.9446 20.5538 15.1961 20.5013C15.48 20.442 15.7474 20.2868 16.2809 19.9772L16.7263 19.7187C17.2556 19.4115 17.521 19.2574 17.7125 19.0419C17.8824 18.8507 18.0095 18.6257 18.0855 18.3815C18.1708 18.1075 18.1656 17.8021 18.1554 17.1957L18.1487 16.8002C18.1478 16.7423 18.1477 16.7135 18.1481 16.6851C18.1523 16.3974 18.2254 16.1145 18.3614 15.8609C18.3748 15.8358 18.3894 15.8106 18.4183 15.7606C18.4472 15.7105 18.4622 15.6855 18.4772 15.6613C18.6291 15.4167 18.8373 15.212 19.0846 15.0645C19.1088 15.0501 19.1337 15.0363 19.1831 15.0089L19.1848 15.0081L19.5102 14.8278C20.0515 14.5278 20.3226 14.3776 20.5195 14.1639C20.6937 13.9749 20.8251 13.7511 20.9054 13.5069C20.9957 13.2326 20.995 12.9249 20.9936 12.3132L20.9924 11.7965C20.991 11.1818 20.9903 10.8747 20.8993 10.6006C20.8188 10.358 20.6874 10.1352 20.5142 9.94733C20.3186 9.7352 20.0503 9.58595 19.5141 9.28768L19.5126 9.28691Z" stroke="#111111" stroke-width="2" stroke-linecap="round" stroke-linejoin="round"/>
<path d="M8.39979 12.0558C8.39979 14.0437 10.0113 15.6552 11.9992 15.6552C13.9871 15.6552 15.5986 14.0437 15.5986 12.0558C15.5986 10.0679 13.9871 8.45638 11.9992 8.45638C10.0113 8.45638 8.39979 10.0679 8.39979 12.0558Z" stroke="#111111" stroke-width="2" stroke-linecap="round" stroke-linejoin="round"/>
</svg>
